<svg width="1170.0" height="520.0" xmlns="http://www.w3.org/2000/svg">
  <defs>
    <marker id="square-4823f03d" markerWidth="25.0" markerHeight="25.0" refX="0" refY="12.5" orient="auto-start-reverse" markerUnits="userSpaceOnUse">
      <rect x="0" y="0" width="25.0" height="25.0" fill="rgba(64, 64, 64, 0.5)" stroke="none" stroke-width="1"/>
    </marker>
    <marker id="arrow-bee1dbba" markerWidth="30.0" markerHeight="30.0" refX="30.0" refY="15.0" orient="auto" markerUnits="userSpaceOnUse">
      <polygon points="30.0,0 0,15.0 30.0,30.0" fill="rgba(64, 64, 64, 0.5)" stroke="none"/>
    </marker>
  </defs>
  <g transform="translate(-680, -780) scale(2)">
  <rect x="502" y="402" width="196" height="96" rx="3.0" ry="3.0" fill="#ff6b6b" fill-opacity="0.5" stroke="none"/>
  <rect x="501.0" y="401.0" width="198" height="98" rx="4.0" ry="4.0" fill="none" stroke="#af1b1b" stroke-opacity="0.5" stroke-width="2"/>
  <polyline points="700,500 800.0,500 800.0,600.0 900.0,600.0 900.0,610.0" fill="none" stroke="#404040" stroke-opacity="0.5" stroke-width="10" marker-start="url(#square-4823f03d)" marker-end="url(#arrow-bee1dbba)"/>
  <polyline points="500,500 500,510.0 520.0,510.0 520.0,540.0" fill="none" stroke="#ff0000" stroke-opacity="0.5" stroke-width="10"/>
  <polyline points="500,500 500,510.0 520.0,510.0 520.0,540.0" fill="none" stroke="#8b0000" stroke-opacity="0.5" stroke-width="8"/>
  <rect x="352" y="502" width="146" height="76" fill="#ffe66d" stroke="none"/>
  <rect x="351.0" y="501.0" width="148" height="78" fill="none" stroke="#00f000" stroke-width="2"/>
  <circle cx="600.0" cy="450.0" r="28" fill="#add8e6" fill-opacity="0.7" stroke="none"/>
  <circle cx="600.0" cy="450.0" r="29.0" fill="none" stroke="#00008b" stroke-width="2"/>
  <polyline points="500.0,450.0 450.0,450.0 450.0,480.0 550.0,480.0" fill="none" stroke="#50c878" stroke-width="3"/>
  </g>
</svg>